<mxfile host="app.diagrams.net" agent="Mozilla/5.0 (Windows NT 10.0; Win64; x64) AppleWebKit/537.36 (KHTML, like Gecko) Chrome/132.0.0.0 Safari/537.36" version="26.0.8">
  <diagram name="Strona-1" id="OPua6QMtRrYTettTjcWc">
    <mxGraphModel dx="1024" dy="533" grid="1" gridSize="10" guides="1" tooltips="1" connect="1" arrows="1" fold="1" page="1" pageScale="1" pageWidth="827" pageHeight="1169" math="0" shadow="0">
      <root>
        <mxCell id="0" />
        <mxCell id="1" parent="0" />
        <mxCell id="SjfZKKR3_GOXM8YcbIHh-8" value="" style="edgeStyle=orthogonalEdgeStyle;rounded=0;orthogonalLoop=1;jettySize=auto;html=1;entryX=0.5;entryY=0;entryDx=0;entryDy=0;" parent="1" source="SjfZKKR3_GOXM8YcbIHh-1" target="SjfZKKR3_GOXM8YcbIHh-9" edge="1">
          <mxGeometry relative="1" as="geometry">
            <mxPoint x="400" y="350" as="targetPoint" />
          </mxGeometry>
        </mxCell>
        <mxCell id="SjfZKKR3_GOXM8YcbIHh-1" value="&lt;b&gt;Wykrycie obszarów kodu ArUco&lt;/b&gt;" style="rounded=0;whiteSpace=wrap;html=1;" parent="1" vertex="1">
          <mxGeometry x="340" y="350" width="120" height="60" as="geometry" />
        </mxCell>
        <mxCell id="SjfZKKR3_GOXM8YcbIHh-12" value="" style="edgeStyle=orthogonalEdgeStyle;rounded=0;orthogonalLoop=1;jettySize=auto;html=1;" parent="1" source="SjfZKKR3_GOXM8YcbIHh-9" edge="1">
          <mxGeometry relative="1" as="geometry">
            <mxPoint x="300" y="490" as="targetPoint" />
          </mxGeometry>
        </mxCell>
        <mxCell id="TH82L9bVsR1r5zgLcPl5-3" value="&lt;b&gt;NIE&lt;/b&gt;" style="edgeLabel;html=1;align=center;verticalAlign=middle;resizable=0;points=[];" parent="SjfZKKR3_GOXM8YcbIHh-12" vertex="1" connectable="0">
          <mxGeometry x="-0.2423" relative="1" as="geometry">
            <mxPoint as="offset" />
          </mxGeometry>
        </mxCell>
        <mxCell id="SjfZKKR3_GOXM8YcbIHh-14" value="" style="edgeStyle=orthogonalEdgeStyle;rounded=0;orthogonalLoop=1;jettySize=auto;html=1;" parent="1" source="SjfZKKR3_GOXM8YcbIHh-9" target="SjfZKKR3_GOXM8YcbIHh-13" edge="1">
          <mxGeometry relative="1" as="geometry" />
        </mxCell>
        <mxCell id="TH82L9bVsR1r5zgLcPl5-1" value="&lt;b&gt;TAK&lt;/b&gt;" style="edgeLabel;html=1;align=center;verticalAlign=middle;resizable=0;points=[];" parent="SjfZKKR3_GOXM8YcbIHh-14" vertex="1" connectable="0">
          <mxGeometry x="-0.2" y="-2" relative="1" as="geometry">
            <mxPoint y="-2" as="offset" />
          </mxGeometry>
        </mxCell>
        <mxCell id="SjfZKKR3_GOXM8YcbIHh-9" value="&lt;b&gt;Czy wykryto?&lt;/b&gt;" style="rhombus;whiteSpace=wrap;html=1;rounded=0;" parent="1" vertex="1">
          <mxGeometry x="345" y="435" width="110" height="110" as="geometry" />
        </mxCell>
        <mxCell id="SjfZKKR3_GOXM8YcbIHh-16" value="" style="edgeStyle=orthogonalEdgeStyle;rounded=0;orthogonalLoop=1;jettySize=auto;html=1;" parent="1" source="SjfZKKR3_GOXM8YcbIHh-13" target="SjfZKKR3_GOXM8YcbIHh-15" edge="1">
          <mxGeometry relative="1" as="geometry" />
        </mxCell>
        <mxCell id="SjfZKKR3_GOXM8YcbIHh-13" value="&lt;b&gt;Odczyt wartości kodów AruCo&lt;/b&gt;" style="whiteSpace=wrap;html=1;rounded=0;" parent="1" vertex="1">
          <mxGeometry x="501.88" y="460" width="120" height="60" as="geometry" />
        </mxCell>
        <mxCell id="SjfZKKR3_GOXM8YcbIHh-15" value="&lt;b&gt;Czy wartości zdefiniowano?&lt;/b&gt;" style="rhombus;whiteSpace=wrap;html=1;rounded=0;" parent="1" vertex="1">
          <mxGeometry x="503.75" y="560" width="116.25" height="120" as="geometry" />
        </mxCell>
        <mxCell id="SjfZKKR3_GOXM8YcbIHh-25" value="" style="endArrow=classic;html=1;rounded=0;entryX=0;entryY=0.5;entryDx=0;entryDy=0;" parent="1" edge="1">
          <mxGeometry width="50" height="50" relative="1" as="geometry">
            <mxPoint x="140" y="490" as="sourcePoint" />
            <mxPoint x="180" y="490" as="targetPoint" />
          </mxGeometry>
        </mxCell>
        <mxCell id="SjfZKKR3_GOXM8YcbIHh-28" value="" style="endArrow=none;html=1;rounded=0;" parent="1" edge="1">
          <mxGeometry width="50" height="50" relative="1" as="geometry">
            <mxPoint x="140" y="620" as="sourcePoint" />
            <mxPoint x="140" y="490" as="targetPoint" />
          </mxGeometry>
        </mxCell>
        <mxCell id="SjfZKKR3_GOXM8YcbIHh-36" value="" style="endArrow=none;html=1;rounded=0;entryX=0;entryY=0.5;entryDx=0;entryDy=0;" parent="1" target="SjfZKKR3_GOXM8YcbIHh-15" edge="1">
          <mxGeometry width="50" height="50" relative="1" as="geometry">
            <mxPoint x="140" y="620" as="sourcePoint" />
            <mxPoint x="350" y="570" as="targetPoint" />
          </mxGeometry>
        </mxCell>
        <mxCell id="TH82L9bVsR1r5zgLcPl5-5" value="&lt;b&gt;NIE&lt;/b&gt;" style="edgeLabel;html=1;align=center;verticalAlign=middle;resizable=0;points=[];" parent="SjfZKKR3_GOXM8YcbIHh-36" vertex="1" connectable="0">
          <mxGeometry x="0.7925" relative="1" as="geometry">
            <mxPoint as="offset" />
          </mxGeometry>
        </mxCell>
        <mxCell id="SjfZKKR3_GOXM8YcbIHh-37" value="&lt;b&gt;Skalowanie obszarów kodów ArUco&lt;/b&gt;" style="whiteSpace=wrap;html=1;rounded=0;" parent="1" vertex="1">
          <mxGeometry x="740" y="193.75" width="130" height="60" as="geometry" />
        </mxCell>
        <mxCell id="SjfZKKR3_GOXM8YcbIHh-44" value="" style="edgeStyle=orthogonalEdgeStyle;rounded=0;orthogonalLoop=1;jettySize=auto;html=1;" parent="1" source="SjfZKKR3_GOXM8YcbIHh-41" target="SjfZKKR3_GOXM8YcbIHh-43" edge="1">
          <mxGeometry relative="1" as="geometry" />
        </mxCell>
        <mxCell id="SjfZKKR3_GOXM8YcbIHh-41" value="&lt;b&gt;Progowanie masek&lt;/b&gt;" style="whiteSpace=wrap;html=1;rounded=0;" parent="1" vertex="1">
          <mxGeometry x="740" y="366.25" width="130" height="60" as="geometry" />
        </mxCell>
        <mxCell id="SjfZKKR3_GOXM8YcbIHh-46" value="" style="edgeStyle=orthogonalEdgeStyle;rounded=0;orthogonalLoop=1;jettySize=auto;html=1;" parent="1" source="SjfZKKR3_GOXM8YcbIHh-43" target="SjfZKKR3_GOXM8YcbIHh-45" edge="1">
          <mxGeometry relative="1" as="geometry" />
        </mxCell>
        <mxCell id="SjfZKKR3_GOXM8YcbIHh-43" value="&lt;b&gt;Filtracja małych obiektów w maskach&lt;/b&gt;" style="whiteSpace=wrap;html=1;rounded=0;" parent="1" vertex="1">
          <mxGeometry x="740" y="456.25" width="130" height="60" as="geometry" />
        </mxCell>
        <mxCell id="SjfZKKR3_GOXM8YcbIHh-48" value="" style="edgeStyle=orthogonalEdgeStyle;rounded=0;orthogonalLoop=1;jettySize=auto;html=1;" parent="1" source="SjfZKKR3_GOXM8YcbIHh-45" target="SjfZKKR3_GOXM8YcbIHh-47" edge="1">
          <mxGeometry relative="1" as="geometry" />
        </mxCell>
        <mxCell id="SjfZKKR3_GOXM8YcbIHh-45" value="&lt;b&gt;Wyodrębnienie krawędzi w maskach&lt;/b&gt;" style="whiteSpace=wrap;html=1;rounded=0;" parent="1" vertex="1">
          <mxGeometry x="740" y="546.25" width="130" height="60" as="geometry" />
        </mxCell>
        <mxCell id="SjfZKKR3_GOXM8YcbIHh-47" value="&lt;b&gt;Dylatacja masek&lt;/b&gt;" style="whiteSpace=wrap;html=1;rounded=0;" parent="1" vertex="1">
          <mxGeometry x="740" y="636.25" width="130" height="60" as="geometry" />
        </mxCell>
        <mxCell id="SjfZKKR3_GOXM8YcbIHh-49" value="" style="endArrow=none;html=1;rounded=0;exitX=1;exitY=0.5;exitDx=0;exitDy=0;" parent="1" source="SjfZKKR3_GOXM8YcbIHh-15" edge="1">
          <mxGeometry width="50" height="50" relative="1" as="geometry">
            <mxPoint x="630" y="600" as="sourcePoint" />
            <mxPoint x="680" y="620" as="targetPoint" />
          </mxGeometry>
        </mxCell>
        <mxCell id="TH82L9bVsR1r5zgLcPl5-4" value="&lt;b&gt;TAK&lt;/b&gt;" style="edgeLabel;html=1;align=center;verticalAlign=middle;resizable=0;points=[];" parent="SjfZKKR3_GOXM8YcbIHh-49" vertex="1" connectable="0">
          <mxGeometry x="-0.1186" relative="1" as="geometry">
            <mxPoint as="offset" />
          </mxGeometry>
        </mxCell>
        <mxCell id="SjfZKKR3_GOXM8YcbIHh-50" value="" style="endArrow=none;html=1;rounded=0;" parent="1" edge="1">
          <mxGeometry width="50" height="50" relative="1" as="geometry">
            <mxPoint x="680" y="620" as="sourcePoint" />
            <mxPoint x="680" y="160" as="targetPoint" />
          </mxGeometry>
        </mxCell>
        <mxCell id="SjfZKKR3_GOXM8YcbIHh-52" value="" style="endArrow=none;html=1;rounded=0;" parent="1" edge="1">
          <mxGeometry width="50" height="50" relative="1" as="geometry">
            <mxPoint x="680" y="160" as="sourcePoint" />
            <mxPoint x="800" y="160" as="targetPoint" />
          </mxGeometry>
        </mxCell>
        <mxCell id="SjfZKKR3_GOXM8YcbIHh-53" value="" style="edgeStyle=orthogonalEdgeStyle;rounded=0;orthogonalLoop=1;jettySize=auto;html=1;" parent="1" edge="1" target="SjfZKKR3_GOXM8YcbIHh-37">
          <mxGeometry relative="1" as="geometry">
            <mxPoint x="780" y="160" as="sourcePoint" />
            <mxPoint x="826.92" y="180" as="targetPoint" />
            <Array as="points">
              <mxPoint x="805" y="160" />
            </Array>
          </mxGeometry>
        </mxCell>
        <mxCell id="TH82L9bVsR1r5zgLcPl5-9" style="edgeStyle=orthogonalEdgeStyle;rounded=0;orthogonalLoop=1;jettySize=auto;html=1;exitX=0.5;exitY=1;exitDx=0;exitDy=0;entryX=0.5;entryY=0;entryDx=0;entryDy=0;" parent="1" target="SjfZKKR3_GOXM8YcbIHh-1" edge="1">
          <mxGeometry relative="1" as="geometry">
            <mxPoint x="400" y="310" as="sourcePoint" />
          </mxGeometry>
        </mxCell>
        <mxCell id="qVZzo8COclYNq5yPTm4Z-1" value="&lt;b&gt;Utworzenie masek&lt;/b&gt;" style="whiteSpace=wrap;html=1;rounded=0;" vertex="1" parent="1">
          <mxGeometry x="740" y="283.75" width="130" height="60" as="geometry" />
        </mxCell>
        <mxCell id="qVZzo8COclYNq5yPTm4Z-2" value="&lt;b&gt;Wizualizacja efektów końcowych&lt;/b&gt;" style="whiteSpace=wrap;html=1;rounded=0;" vertex="1" parent="1">
          <mxGeometry x="740" y="726.25" width="130" height="60" as="geometry" />
        </mxCell>
        <mxCell id="qVZzo8COclYNq5yPTm4Z-3" value="" style="edgeStyle=orthogonalEdgeStyle;rounded=0;orthogonalLoop=1;jettySize=auto;html=1;" edge="1" parent="1" source="SjfZKKR3_GOXM8YcbIHh-47" target="qVZzo8COclYNq5yPTm4Z-2">
          <mxGeometry relative="1" as="geometry">
            <mxPoint x="815" y="697.25" as="sourcePoint" />
            <mxPoint x="815" y="727.25" as="targetPoint" />
          </mxGeometry>
        </mxCell>
        <mxCell id="qVZzo8COclYNq5yPTm4Z-4" value="" style="edgeStyle=orthogonalEdgeStyle;rounded=0;orthogonalLoop=1;jettySize=auto;html=1;" edge="1" parent="1" source="SjfZKKR3_GOXM8YcbIHh-37" target="qVZzo8COclYNq5yPTm4Z-1">
          <mxGeometry relative="1" as="geometry">
            <mxPoint x="820" y="253.75" as="sourcePoint" />
            <mxPoint x="820" y="283.75" as="targetPoint" />
          </mxGeometry>
        </mxCell>
        <mxCell id="qVZzo8COclYNq5yPTm4Z-5" value="" style="edgeStyle=orthogonalEdgeStyle;rounded=0;orthogonalLoop=1;jettySize=auto;html=1;" edge="1" parent="1" source="qVZzo8COclYNq5yPTm4Z-1" target="SjfZKKR3_GOXM8YcbIHh-41">
          <mxGeometry relative="1" as="geometry">
            <mxPoint x="820" y="343.75" as="sourcePoint" />
            <mxPoint x="820" y="373.75" as="targetPoint" />
          </mxGeometry>
        </mxCell>
        <mxCell id="qVZzo8COclYNq5yPTm4Z-6" value="&lt;b&gt;&lt;i&gt;KONIEC&lt;/i&gt;&lt;/b&gt;" style="ellipse;whiteSpace=wrap;html=1;" vertex="1" parent="1">
          <mxGeometry x="180" y="450" width="120" height="80" as="geometry" />
        </mxCell>
        <mxCell id="qVZzo8COclYNq5yPTm4Z-7" value="&lt;b&gt;&lt;i&gt;KONIEC&lt;/i&gt;&lt;/b&gt;" style="ellipse;whiteSpace=wrap;html=1;" vertex="1" parent="1">
          <mxGeometry x="570" y="716.25" width="120" height="80" as="geometry" />
        </mxCell>
        <mxCell id="qVZzo8COclYNq5yPTm4Z-8" value="" style="endArrow=classic;html=1;rounded=0;" edge="1" parent="1" source="qVZzo8COclYNq5yPTm4Z-2" target="qVZzo8COclYNq5yPTm4Z-7">
          <mxGeometry width="50" height="50" relative="1" as="geometry">
            <mxPoint x="630" y="500" as="sourcePoint" />
            <mxPoint x="680" y="450" as="targetPoint" />
          </mxGeometry>
        </mxCell>
        <mxCell id="qVZzo8COclYNq5yPTm4Z-9" value="&lt;b&gt;&lt;i&gt;START&lt;/i&gt;&lt;/b&gt;&lt;div&gt;&lt;b&gt;&lt;i&gt;(Pobranie obrazu)&lt;/i&gt;&lt;/b&gt;&lt;/div&gt;" style="ellipse;whiteSpace=wrap;html=1;" vertex="1" parent="1">
          <mxGeometry x="340" y="230" width="120" height="80" as="geometry" />
        </mxCell>
      </root>
    </mxGraphModel>
  </diagram>
</mxfile>
